<svg width="28" height="28" viewBox="0 0 28 28" fill="none" xmlns="http://www.w3.org/2000/svg">
<rect width="28" height="28" rx="6.27083" fill="#3372D1"/>
<path fill-rule="evenodd" clip-rule="evenodd" d="M7.63688 11.7479C6.14593 12.6052 6.22048 12.5546 6.0847 12.8102L6.02612 12.9194V18.3773L6.09268 18.5077C6.15126 18.6249 6.38555 18.8698 6.4388 18.8698C6.44944 18.8698 6.62516 18.9683 6.82751 19.0855C7.03251 19.2053 7.78597 19.6393 8.50216 20.0493C10.2088 21.0237 11.1246 21.5509 12.5384 22.3735C13.4436 22.9007 13.7338 23.0578 13.8509 23.0817C14.1331 23.143 14.1811 23.119 15.475 22.3682C16.1193 21.9928 16.7449 21.6281 16.8621 21.5589C16.9792 21.487 17.6262 21.1169 18.2998 20.7335C18.9734 20.3501 19.6443 19.9667 19.7907 19.8815C19.9372 19.7963 20.4111 19.5221 20.8424 19.2745C21.2737 19.0242 21.6757 18.7793 21.7343 18.7287C21.7929 18.6781 21.8701 18.5796 21.9073 18.5077L21.9739 18.3773V12.9194L21.8914 12.7729C21.7875 12.5866 21.6784 12.5067 21.0634 12.1526C20.7891 11.9955 20.3179 11.7239 20.017 11.5509L19.4712 11.2314L19.4579 10.5445C19.4446 9.88156 19.442 9.85228 19.3781 9.72448C19.2503 9.46357 19.1198 9.37038 17.935 8.68881L16.8248 8.05249L16.8168 7.38423L16.8111 6.9038C16.8096 6.77844 16.7797 6.65505 16.7236 6.54291C16.6172 6.32459 16.4947 6.20745 16.2098 6.04238C16.0847 5.9705 15.6667 5.72822 15.278 5.50191C14.8893 5.27827 14.4899 5.05197 14.3887 5.00138C14.245 4.92683 14.1677 4.90554 14.0293 4.89755C13.8216 4.88956 13.6858 4.93748 13.3344 5.15048C13.1214 5.27827 12.5756 5.59243 11.8967 5.97848C11.5213 6.19414 11.3882 6.31395 11.2764 6.54025C11.2203 6.65418 11.1904 6.77921 11.1889 6.90618L11.1832 7.38157C11.1752 7.97528 11.1699 8.05249 11.1299 8.07645C11.106 8.09243 10.8451 8.24419 10.5522 8.41192C8.79768 9.42097 8.84561 9.38902 8.71781 9.57006C8.55008 9.80968 8.53943 9.86825 8.53943 10.5605C8.54209 10.9066 8.5341 11.2021 8.52079 11.2181C8.51014 11.2341 8.11345 11.4737 7.63688 11.7479ZM19.4712 11.708C19.4766 11.708 19.7987 11.889 20.1821 12.1127C20.5682 12.3336 21.0021 12.5866 21.1486 12.6691C21.295 12.7543 21.4521 12.8608 21.4947 12.906L21.5745 12.9886V15.643C21.5745 18.2548 21.5745 18.2974 21.5213 18.372C21.4734 18.4359 20.7465 18.8885 20.7226 18.8645C20.5628 18.7181 19.852 18.0019 19.7907 17.9247C19.6816 17.7916 19.5777 17.5839 19.5192 17.3869C19.4766 17.2458 19.4712 16.9875 19.4633 14.4689C19.4606 12.9513 19.4633 11.708 19.4712 11.708ZM16.8621 8.5477C16.9233 8.57432 18.6592 9.57539 18.7977 9.66591C18.8669 9.71117 18.9494 9.79637 18.984 9.8576L19.0453 9.9641L19.0586 13.6249C19.0772 17.6664 19.0639 17.3975 19.2449 17.7942C19.3701 18.0738 19.5351 18.2788 19.9638 18.6888C20.2673 18.979 20.3578 19.0802 20.3312 19.1015C20.2167 19.1867 18.2039 20.3341 18.1667 20.3341C18.1454 20.3341 18.1134 20.3102 18.0948 20.2836C18.0735 20.2543 17.9324 20.0972 17.778 19.9295C17.0804 19.184 17.0298 19.1174 16.9047 18.7926L16.8355 18.6169L16.8275 13.5743C16.8222 9.12544 16.8248 8.53439 16.8621 8.5477ZM14.2103 5.37146C14.2237 5.37146 14.3408 5.43269 14.4713 5.50724C14.5991 5.58445 15.0304 5.82939 15.4244 6.05569C16.1885 6.49233 16.3403 6.60947 16.3935 6.7985C16.4148 6.87039 16.4228 8.62225 16.4228 12.7064C16.4228 18.9257 16.4175 18.6435 16.5533 19.0056C16.6411 19.2346 16.8088 19.4742 17.1017 19.791C17.5197 20.241 17.8072 20.5578 17.7993 20.5631C17.7913 20.5684 17.1363 20.9465 16.4494 21.3459C15.688 21.7852 15.4617 21.9156 14.82 22.2883C14.5032 22.4721 14.2316 22.6238 14.2157 22.6238C14.1944 22.6238 14.1864 20.193 14.1864 13.9976C14.1864 8.79796 14.197 5.37146 14.2103 5.37146ZM11.4468 19.0056C11.5826 18.6435 11.5772 18.9257 11.5772 12.7064C11.5772 8.69679 11.5852 6.87039 11.6065 6.80116C11.6465 6.65473 11.7929 6.50564 12.0272 6.37518C12.3174 6.21011 13.2545 5.66698 13.5208 5.5099C13.6459 5.43535 13.7631 5.37412 13.779 5.37412C13.8057 5.37146 13.8136 7.13663 13.8136 13.9976C13.8136 20.193 13.8057 22.6238 13.7844 22.6238C13.7684 22.6238 13.4968 22.4721 13.18 22.2883C12.4931 21.889 12.139 21.684 11.3243 21.2127C10.294 20.6164 10.2194 20.5738 10.2194 20.5498C10.2194 20.5365 10.3179 20.4193 10.4404 20.2889C11.2231 19.4449 11.3323 19.3065 11.4468 19.0056ZM8.75242 17.7995C8.93879 17.3922 8.92548 17.7064 8.94145 13.6382C8.95743 9.58604 8.94145 9.9002 9.11983 9.73247C9.15977 9.69253 9.63101 9.41032 10.1662 9.10148C10.7013 8.79264 11.1459 8.53971 11.1592 8.53971C11.1699 8.53971 11.1752 10.8081 11.1725 13.577L11.1646 18.6169L11.0953 18.7926C10.9702 19.1174 10.9409 19.1547 10.2141 19.9374C10.0703 20.0919 9.9292 20.2463 9.89992 20.2809C9.85199 20.3368 9.83868 20.3395 9.77478 20.3102C9.60705 20.233 7.6635 19.0988 7.6635 19.0775C7.6635 19.0642 7.83922 18.8831 8.05221 18.6755C8.47021 18.2708 8.63261 18.0684 8.75242 17.7995ZM8.5341 14.4928C8.52612 17.52 8.53677 17.3203 8.35306 17.6984C8.28384 17.8421 8.18001 17.9593 7.77 18.3746L7.27213 18.8778L6.94199 18.6835C6.76095 18.5796 6.58256 18.4651 6.55062 18.4359C6.40685 18.3027 6.41217 18.4332 6.41217 15.6483C6.41217 12.8635 6.40685 12.9912 6.55062 12.8635C6.58256 12.8315 6.94199 12.6185 7.34401 12.3869C7.74603 12.1553 8.17202 11.9076 8.28916 11.8384C8.40631 11.7719 8.5128 11.7239 8.52345 11.7346C8.5341 11.7452 8.53943 12.9859 8.5341 14.4928Z" fill="white"/>
</svg>
